<?xml version="1.0" encoding="UTF-8" standalone="no"?>
<!-- Created with Inkscape (http://www.inkscape.org/) -->

<svg
   xmlns:dc="http://purl.org/dc/elements/1.1/"
   xmlns:cc="http://creativecommons.org/ns#"
   xmlns:rdf="http://www.w3.org/1999/02/22-rdf-syntax-ns#"
   xmlns:svg="http://www.w3.org/2000/svg"
   xmlns="http://www.w3.org/2000/svg"
   xmlns:sodipodi="http://sodipodi.sourceforge.net/DTD/sodipodi-0.dtd"
   xmlns:inkscape="http://www.inkscape.org/namespaces/inkscape"
   width="55mm"
   height="10.583339mm"
   viewBox="0 0 55 10.583339"
   version="1.1"
   id="svg1125"
   inkscape:version="0.92.5 (2060ec1f9f, 2020-04-08)"
   sodipodi:docname="dcoraid_text.svg"
   inkscape:export-filename="/home/paul/repos/DCOR-Aid/dcoraid/img/dcoraid_text.png"
   inkscape:export-xdpi="96.058182"
   inkscape:export-ydpi="96.058182">
  <defs
     id="defs1119">
    <clipPath
       clipPathUnits="userSpaceOnUse"
       id="clipPath1920-0">
      <rect
         y="191.38368"
         x="236.45921"
         height="5.3370204"
         width="21.364132"
         id="rect1922-8"
         style="opacity:1;fill:#000000;fill-opacity:1;fill-rule:nonzero;stroke:none;stroke-width:0.16562912;stroke-linecap:round;stroke-linejoin:round;stroke-miterlimit:4;stroke-dasharray:none;stroke-dashoffset:0;stroke-opacity:1;paint-order:markers stroke fill" />
    </clipPath>
    <filter
       style="color-interpolation-filters:sRGB"
       inkscape:label="Cross Blur"
       id="filter1296-7-3-8">
      <feColorMatrix
         in="SourceGraphic"
         values="1 0 0 0 0 0 1 0 0 0 0 0 1 0 0 -0.2125 -0.7154 -0.0721 1 0 "
         result="colormatrix"
         id="feColorMatrix1286-9-9-5" />
      <feComposite
         k1="0"
         in="SourceGraphic"
         in2="colormatrix"
         operator="arithmetic"
         k2="1"
         k3="0"
         k4="0"
         result="composite"
         id="feComposite1288-2-4-0" />
      <feGaussianBlur
         stdDeviation="0.15 0.01"
         result="blur1"
         id="feGaussianBlur1290-0-8-9" />
      <feGaussianBlur
         in="composite"
         stdDeviation="0.01 0.01"
         result="blur2"
         id="feGaussianBlur1292-2-1-6" />
      <feBlend
         in="blur2"
         in2="blur1"
         mode="multiply"
         result="blend"
         id="feBlend1294-3-2-3" />
    </filter>
    <filter
       style="color-interpolation-filters:sRGB"
       inkscape:label="Cross Blur"
       id="filter1296-7">
      <feColorMatrix
         in="SourceGraphic"
         values="1 0 0 0 0 0 1 0 0 0 0 0 1 0 0 -0.2125 -0.7154 -0.0721 1 0 "
         result="colormatrix"
         id="feColorMatrix1286-9" />
      <feComposite
         k1="0"
         in="SourceGraphic"
         in2="colormatrix"
         operator="arithmetic"
         k2="1"
         k3="0"
         k4="0"
         result="composite"
         id="feComposite1288-2" />
      <feGaussianBlur
         stdDeviation="0.15 0.01"
         result="blur1"
         id="feGaussianBlur1290-0" />
      <feGaussianBlur
         in="composite"
         stdDeviation="0.01 0.01"
         result="blur2"
         id="feGaussianBlur1292-2" />
      <feBlend
         in="blur2"
         in2="blur1"
         mode="multiply"
         result="blend"
         id="feBlend1294-3" />
    </filter>
    <clipPath
       clipPathUnits="userSpaceOnUse"
       id="clipPath833">
      <rect
         y="191.01314"
         x="236.45921"
         height="7.01051"
         width="31.167334"
         id="rect835"
         style="opacity:1;fill:#000000;fill-opacity:1;fill-rule:nonzero;stroke:none;stroke-width:0.2292816;stroke-linecap:round;stroke-linejoin:round;stroke-miterlimit:4;stroke-dasharray:none;stroke-dashoffset:0;stroke-opacity:1;paint-order:markers stroke fill" />
    </clipPath>
  </defs>
  <sodipodi:namedview
     id="base"
     pagecolor="#ffffff"
     bordercolor="#666666"
     borderopacity="1.0"
     inkscape:pageopacity="0.0"
     inkscape:pageshadow="2"
     inkscape:zoom="3.959798"
     inkscape:cx="121.56636"
     inkscape:cy="29.735587"
     inkscape:document-units="mm"
     inkscape:current-layer="layer1"
     showgrid="false"
     fit-margin-top="0"
     fit-margin-left="0"
     fit-margin-right="0"
     fit-margin-bottom="0"
     inkscape:window-width="1862"
     inkscape:window-height="1016"
     inkscape:window-x="58"
     inkscape:window-y="27"
     inkscape:window-maximized="1"
     inkscape:snap-page="true" />
  <metadata
     id="metadata1122">
    <rdf:RDF>
      <cc:Work
         rdf:about="">
        <dc:format>image/svg+xml</dc:format>
        <dc:type
           rdf:resource="http://purl.org/dc/dcmitype/StillImage" />
        <dc:title></dc:title>
      </cc:Work>
    </rdf:RDF>
  </metadata>
  <g
     inkscape:label="Layer 1"
     inkscape:groupmode="layer"
     id="layer1"
     transform="translate(-104.33784,-123.05773)">
    <rect
       style="opacity:1;fill:#ffffff;fill-opacity:1;fill-rule:nonzero;stroke:none;stroke-width:0.96500009;stroke-linecap:butt;stroke-linejoin:bevel;stroke-miterlimit:4;stroke-dasharray:none;stroke-dashoffset:0;stroke-opacity:0.99099097;paint-order:markers stroke fill"
       id="rect1032-3"
       width="55"
       height="10.583339"
       x="104.33784"
       y="123.05773"
       ry="0.79374999"
       rx="0.79374999" />
    <g
       aria-label="â–DCOR-Aid"
       transform="matrix(1.6985118,0,0,1.6985118,-296.25996,-201.38034)"
       clip-path="url(#clipPath833)"
       style="font-style:normal;font-variant:normal;font-weight:normal;font-stretch:normal;font-size:4.49122858px;line-height:1.25;font-family:sans-serif;-inkscape-font-specification:sans-serif;letter-spacing:0px;word-spacing:0px;fill:#000000;fill-opacity:1;stroke:none;stroke-width:0.05;stroke-miterlimit:4;stroke-dasharray:none;stroke-opacity:1;filter:url(#filter1296-7)"
       id="text1242-7">
      <path
         d="m 236.78511,194.01356 1.16789,-1.16789 1.16789,1.16789 -1.16789,1.16789 z m 2.81809,0 1.17133,-1.16444 1.16445,1.16444 -1.16445,1.17478 z m -1.40215,-1.39527 1.16789,-1.17477 1.16788,1.17477 -1.16788,1.16445 z m 0,2.8112 1.16789,-1.16788 1.16788,1.16788 -1.16788,1.16789 z"
         style="fill:#494949;fill-opacity:1;stroke:none;stroke-width:0.05;stroke-miterlimit:4;stroke-dasharray:none;stroke-opacity:1"
         id="path1034"
         inkscape:connector-curvature="0" />
      <path
         d="m 246.20059,194.13188 q 0,0.68439 -0.14817,1.16416 -0.14111,0.47273 -0.41628,0.76906 -0.26811,0.29633 -0.65616,0.43039 -0.381,0.13405 -0.85373,0.13405 -0.47977,0 -1.016,-0.127 v -4.74133 q 0.26812,-0.0564 0.52212,-0.0917 0.254,-0.0353 0.48683,-0.0353 0.47978,0 0.86078,0.13406 0.38805,0.13405 0.65616,0.43038 0.27517,0.29634 0.41628,0.77612 0.14817,0.47272 0.14817,1.15711 z m -0.67734,0 q 0,-0.52211 -0.0776,-0.889 -0.0776,-0.36689 -0.23989,-0.59973 -0.16227,-0.23283 -0.43038,-0.33866 -0.26106,-0.10584 -0.62795,-0.10584 -0.0988,0 -0.19755,0.007 -0.0988,0.007 -0.20462,0.0212 v 3.81 q 0.10584,0.0141 0.20462,0.0212 0.0988,0.007 0.1905,0.007 0.37394,0 0.635,-0.10583 0.26105,-0.10584 0.42333,-0.33162 0.16933,-0.23283 0.24694,-0.59972 0.0776,-0.36689 0.0776,-0.89605 z"
         style="fill:#494949;fill-opacity:1;stroke:none;stroke-width:0.05;stroke-miterlimit:4;stroke-dasharray:none;stroke-opacity:1"
         id="path1036"
         inkscape:connector-curvature="0" />
      <path
         d="m 248.75469,196.68599 q -0.86078,0 -1.31939,-0.64206 -0.45861,-0.64205 -0.45861,-1.98261 0,-0.68439 0.127,-1.15711 0.13405,-0.47272 0.36689,-0.76906 0.23283,-0.29633 0.55033,-0.42333 0.3175,-0.13405 0.69144,-0.13405 0.31045,0 0.57856,0.0847 0.26811,0.0776 0.43744,0.19756 l -0.1905,0.52916 q -0.16933,-0.11288 -0.36689,-0.18344 -0.1905,-0.0706 -0.4445,-0.0706 -0.56444,0 -0.81844,0.47273 -0.254,0.46566 -0.254,1.45344 0,0.99483 0.26811,1.53106 0.26811,0.53622 0.87489,0.53622 0.28928,0 0.46567,-0.0706 0.18344,-0.0705 0.35277,-0.18344 l 0.17639,0.50094 q -0.16227,0.127 -0.43039,0.21873 -0.26105,0.0917 -0.60677,0.0917 z"
         style="fill:#494949;fill-opacity:1;stroke:none;stroke-width:0.05;stroke-miterlimit:4;stroke-dasharray:none;stroke-opacity:1"
         id="path1038"
         inkscape:connector-curvature="0" />
      <path
         d="m 253.70063,194.13893 q 0,0.5715 -0.10584,1.04422 -0.0988,0.46567 -0.3175,0.80434 -0.21166,0.33161 -0.54327,0.51505 -0.32456,0.18345 -0.76906,0.18345 -0.4445,0 -0.77611,-0.18345 -0.32456,-0.18344 -0.54328,-0.51505 -0.21166,-0.33867 -0.3175,-0.80434 -0.10583,-0.47272 -0.10583,-1.04422 0,-0.5715 0.10583,-1.04422 0.10584,-0.47272 0.3175,-0.80433 0.21872,-0.33867 0.54328,-0.52211 0.33161,-0.1905 0.77611,-0.1905 0.4445,0 0.76906,0.1905 0.33161,0.18344 0.54327,0.52211 0.21873,0.33161 0.3175,0.80433 0.10584,0.47272 0.10584,1.04422 z m -0.67734,0 q 0,-0.4445 -0.0564,-0.81139 -0.0564,-0.36689 -0.18344,-0.62794 -0.127,-0.26811 -0.33162,-0.41628 -0.19755,-0.14817 -0.48683,-0.14817 -0.28928,0 -0.49389,0.14817 -0.19755,0.14817 -0.32455,0.41628 -0.127,0.26105 -0.1905,0.62794 -0.0564,0.36689 -0.0564,0.81139 0,0.4445 0.0564,0.81139 0.0635,0.36689 0.1905,0.62795 0.127,0.26105 0.32455,0.40922 0.20461,0.14111 0.49389,0.14111 0.28928,0 0.48683,-0.14111 0.20462,-0.14817 0.33162,-0.40922 0.127,-0.26106 0.18344,-0.62795 0.0564,-0.36689 0.0564,-0.81139 z"
         style="fill:#494949;fill-opacity:1;stroke:none;stroke-width:0.05;stroke-miterlimit:4;stroke-dasharray:none;stroke-opacity:1"
         id="path1040"
         inkscape:connector-curvature="0" />
      <path
         d="m 254.6884,191.76121 q 0.49389,-0.11994 0.9525,-0.11994 0.36689,0 0.66322,0.0847 0.29634,0.0847 0.508,0.26811 0.21167,0.18345 0.32456,0.47273 0.11994,0.28927 0.11994,0.6985 0,0.508 -0.19755,0.8255 -0.1905,0.31044 -0.52211,0.47272 0.0847,0.14111 0.21166,0.38805 0.13406,0.23989 0.26812,0.53623 0.14111,0.28927 0.26811,0.59972 0.13405,0.31044 0.22577,0.59266 h -0.635 q -0.0776,-0.21166 -0.19755,-0.47977 -0.11289,-0.26811 -0.23989,-0.52917 -0.127,-0.26811 -0.254,-0.508 -0.127,-0.24694 -0.22578,-0.41628 -0.11289,0.0141 -0.23283,0.0212 -0.11995,0.007 -0.23989,0.007 h -0.17639 v 1.905 h -0.62089 z m 0.62089,2.39183 h 0.26811 q 0.48684,0 0.74789,-0.21872 0.26106,-0.22578 0.26106,-0.76905 0,-0.27517 -0.0706,-0.45862 -0.0635,-0.1905 -0.1905,-0.29633 -0.11994,-0.11289 -0.29633,-0.16228 -0.16934,-0.0494 -0.381,-0.0494 -0.18345,0 -0.33867,0.0212 z"
         style="fill:#494949;fill-opacity:1;stroke:none;stroke-width:0.05;stroke-miterlimit:4;stroke-dasharray:none;stroke-opacity:1"
         id="path1042"
         inkscape:connector-curvature="0" />
      <path
         d="m 257.75051,194.18127 h 1.30528 v 0.5715 h -1.30528 z"
         style="fill:#494949;fill-opacity:1;stroke:none;stroke-width:0.05;stroke-miterlimit:4;stroke-dasharray:none;stroke-opacity:1"
         id="path1044"
         inkscape:connector-curvature="0" />
      <path
         d="m 261.33473,191.69065 c 0.11289,0.35278 0.22342,0.71026 0.33161,1.07245 0.11289,0.35748 0.22107,0.73378 0.32456,1.12889 0.10818,0.39511 0.21401,0.81374 0.3175,1.25589 0.10818,0.44215 0.21636,0.91957 0.32455,1.43227 h -0.635 c -0.0376,-0.21167 -0.0776,-0.42098 -0.11994,-0.62794 -0.0377,-0.20696 -0.0777,-0.41392 -0.11995,-0.62089 h -1.53811 c -0.047,0.20697 -0.0893,0.41393 -0.127,0.62089 -0.0376,0.20696 -0.0752,0.41627 -0.11289,0.62794 h -0.61383 c 0.10348,-0.5127 0.20931,-0.99012 0.3175,-1.43227 0.10819,-0.44215 0.21402,-0.86078 0.3175,-1.25589 0.10819,-0.39511 0.21637,-0.77141 0.32456,-1.12889 0.11289,-0.36219 0.22577,-0.71967 0.33866,-1.07245 z m -0.34572,0.71967 c -0.11759,0.39041 -0.23048,0.78317 -0.33867,1.17828 -0.10819,0.39511 -0.21167,0.79963 -0.31044,1.21355 h 1.29116 c -0.0941,-0.41392 -0.1952,-0.81844 -0.30339,-1.21355 -0.10818,-0.39511 -0.22107,-0.78787 -0.33866,-1.17828 z"
         style="fill:#009ba1;fill-opacity:1;stroke:none;stroke-width:0.05;stroke-miterlimit:4;stroke-dasharray:none;stroke-opacity:1"
         id="path1046"
         inkscape:connector-curvature="0"
         sodipodi:nodetypes="ccccccccccccccccccscccc" />
      <path
         d="m 263.93116,196.58015 h -0.60678 v -3.60581 h 0.60678 z m -0.30339,-4.26198 c -0.10818,0 -0.20225,-0.0353 -0.28222,-0.10583 -0.0753,-0.0753 -0.11289,-0.17404 -0.11289,-0.29634 0,-0.12229 0.0376,-0.21872 0.11289,-0.28927 0.08,-0.0753 0.17404,-0.11289 0.28222,-0.11289 0.10819,0 0.19991,0.0376 0.27517,0.11289 0.08,0.0705 0.11994,0.16698 0.11994,0.28927 0,0.1223 -0.04,0.22108 -0.11994,0.29634 -0.0753,0.0705 -0.16698,0.10583 -0.27517,0.10583 z"
         style="fill:#009ba1;fill-opacity:1;stroke:none;stroke-width:0.05;stroke-miterlimit:4;stroke-dasharray:none;stroke-opacity:1"
         id="path1048"
         inkscape:connector-curvature="0"
         sodipodi:nodetypes="cccccscscscscs" />
      <path
         d="m 266.62638,193.7589 c -0.13641,-0.0677 -0.28223,-0.10154 -0.43745,-0.10154 -0.11759,0 -0.22107,0.0211 -0.31044,0.0634 -0.0894,0.0424 -0.16699,0.11215 -0.23284,0.20944 -0.0611,0.0973 -0.10817,0.22634 -0.14111,0.38713 -0.0329,0.16077 -0.0494,0.35962 -0.0494,0.59655 0,0.45694 0.0659,0.78483 0.19756,0.98368 0.13641,0.19462 0.34102,0.29193 0.61383,0.29193 0.0517,0 0.10818,-0.002 0.16934,-0.006 0.0611,-0.008 0.12463,-0.0211 0.1905,-0.038 z m 0,-2.15009 0.60677,0.0818 v 4.80987 c -0.1317,0.0508 -0.28222,0.091 -0.45155,0.12058 -0.16933,0.0338 -0.34102,0.0507 -0.51506,0.0507 -0.508,0 -0.87724,-0.14597 -1.10772,-0.4379 -0.22578,-0.29193 -0.33867,-0.73195 -0.33867,-1.32004 0,-0.26654 0.0235,-0.50559 0.0706,-0.71714 0.0517,-0.21577 0.12934,-0.3977 0.23283,-0.54578 0.10819,-0.15231 0.2446,-0.26866 0.40923,-0.34905 0.16463,-0.0846 0.35983,-0.12692 0.58561,-0.12692 0.10818,0 0.1999,0.0106 0.27516,0.0317 0.08,0.0169 0.15758,0.0423 0.23284,0.0762 z"
         style="fill:#009ba1;fill-opacity:1;stroke:none;stroke-width:0.05;stroke-miterlimit:4;stroke-dasharray:none;stroke-opacity:1"
         id="path1050"
         inkscape:connector-curvature="0"
         sodipodi:nodetypes="cscccscscccccccscscccsccc" />
    </g>
  </g>
</svg>
